HIERARCHY
ROOT Hips
{
	OFFSET -0.179506 -22.333345 2.821913
	CHANNELS 6 Xposition Yposition Zposition Zrotation Yrotation Xrotation 
	JOINT LeftUpLeg
	{
		OFFSET 6.951974 -9.140623 -0.681533
		CHANNELS 3 Zrotation Yrotation Xrotation
		JOINT LeftLeg
		{
			OFFSET 3.427654 -37.519855 -0.449580
			CHANNELS 3 Zrotation Yrotation Xrotation
			JOINT LeftFoot
			{
				OFFSET -1.359570 -39.796059 -4.369333
				CHANNELS 3 Zrotation Yrotation Xrotation
				JOINT LeftToe
				{
					OFFSET 2.635814 -5.579078 11.928840
					CHANNELS 3 Zrotation Yrotation Xrotation
					End Site
					{
						OFFSET 0.000000 0.000000 0.000000
					}
				}
			}
		}
	}
	JOINT RightUpLeg
	{
		OFFSET -6.767048 -9.052170 -0.431982
		CHANNELS 3 Zrotation Yrotation Xrotation
		JOINT RightLeg
		{
			OFFSET -3.829005 -38.256897 -0.885003
			CHANNELS 3 Zrotation Yrotation Xrotation
			JOINT RightFoot
			{
				OFFSET 1.577377 -39.841461 -4.231180
				CHANNELS 3 Zrotation Yrotation Xrotation
				JOINT RightToe
				{
					OFFSET -2.537174 -4.814398 12.334795
					CHANNELS 3 Zrotation Yrotation Xrotation
					End Site
					{
						OFFSET 0.000000 0.000000 0.000000
					}
				}
			}
		}
	}
	JOINT Spine
	{
		OFFSET -0.253288 10.896323 -2.669631
		CHANNELS 3 Zrotation Yrotation Xrotation
		JOINT Spine1
		{
			OFFSET 0.548704 13.518043 0.109247
			CHANNELS 3 Zrotation Yrotation Xrotation
			JOINT Spine2
			{
				OFFSET 0.145701 5.292222 2.542457
				CHANNELS 3 Zrotation Yrotation Xrotation
				JOINT Neck
				{
					OFFSET -0.277840 21.387037 -4.285703
					CHANNELS 3 Zrotation Yrotation Xrotation
					JOINT Head
					{
						OFFSET 0.515184 6.496960 5.134897
						CHANNELS 3 Zrotation Yrotation Xrotation
						End Site
						{
							OFFSET 0.000000 0.000000 0.000000
						}
					}
				}
				JOINT LeftShoulder
				{
					OFFSET 7.884473 12.174932 -3.408961
					CHANNELS 3 Zrotation Yrotation Xrotation
					JOINT LeftArm
					{
						OFFSET 9.097692 3.046888 -0.886815
						CHANNELS 3 Zrotation Yrotation Xrotation
						JOINT LeftForeArm
						{
							OFFSET 25.961220 -1.277207 -2.745643
							CHANNELS 3 Zrotation Yrotation Xrotation
							JOINT LeftHand
							{
								OFFSET 24.923361 0.898606 -0.117091
								CHANNELS 3 Zrotation Yrotation Xrotation
								End Site
								{
									OFFSET 0.000000 0.000000 0.000000
								}
							}
						}
					}
				}
				JOINT RightShoulder
				{
					OFFSET -8.175920 11.883285 -3.861528
					CHANNELS 3 Zrotation Yrotation Xrotation
					JOINT RightArm
					{
						OFFSET -9.601238 3.255117 -0.914307
						CHANNELS 3 Zrotation Yrotation Xrotation
						JOINT RightForeArm
						{
							OFFSET -25.374195 -1.332924 -2.140099
							CHANNELS 3 Zrotation Yrotation Xrotation
							JOINT RightHand
							{
								OFFSET -25.529810 0.777228 -0.555919
								CHANNELS 3 Zrotation Yrotation Xrotation
								End Site
								{
									OFFSET 0.000000 0.000000 0.000000
								}
							}
						}
					}
				}
			}
		}
	}
}
MOTION
Frames: 13
Frame Time: 0.033333
-45.222706 13.454928 79.905113 -117.699874 11.913284 88.814859 -9.397579 5.450855 -29.280516 -11.804049 15.564434 52.500353 16.699100 3.965599 -27.544893 nan nan nan -10.129391 4.283021 -14.178025 7.693326 4.558884 70.855497 12.447263 11.148448 -9.995057 nan nan nan 9.257477 -1.943312 27.005012 11.468948 -0.930675 -3.600685 5.412198 2.596674 -1.123505 -2.617170 22.727221 -3.261625 -18.355278 24.504093 -15.789556 -17.722227 -0.140957 3.533801 -51.068030 17.774189 9.778185 -23.374617 -61.580562 45.529143 7.837134 -13.655569 -4.669177 20.335678 8.071351 -6.209115 46.741560 24.071474 19.442488 16.751199 75.389878 33.274844 17.641465 7.573977 4.549129 
-46.115170 13.687743 79.936409 -115.815885 11.191115 89.000356 -10.307412 4.682161 -27.802687 -11.938420 15.129475 51.834036 16.457920 3.464409 -27.401469 nan nan nan -10.113814 5.614219 -14.287527 5.862369 4.324577 72.722502 10.588448 8.233011 -10.561070 nan nan nan 8.929630 -2.568841 26.871986 11.120420 -1.272841 -2.968140 5.103199 2.323911 -1.848101 -3.029290 22.193958 -2.603097 -18.642544 24.693866 -17.596855 -19.067282 -0.783715 3.801134 -50.749484 16.294129 9.973558 -19.306731 -62.308056 41.091233 7.680665 -13.070908 -5.389296 21.115081 7.680920 -5.729737 45.831789 22.613759 19.009335 9.716844 74.630400 25.795165 15.801509 6.931013 3.548133 
-47.003750 13.817831 79.992363 -114.011749 10.343484 88.929145 -11.526052 4.002692 -25.887171 -12.313599 14.142761 50.765077 16.107167 3.370251 -27.391615 nan nan nan -10.263381 6.769346 -14.352610 3.984009 4.403835 74.702357 8.885246 5.049212 -11.352477 nan nan nan 8.738762 -3.115264 27.155943 10.588718 -1.594431 -2.486444 4.809768 1.994324 -2.542889 -3.638090 21.428866 -2.276887 -18.719709 25.020870 -19.028467 -20.220785 -1.657130 3.854547 -50.396062 14.857757 9.808422 -16.054086 -62.824315 37.246994 6.623282 -12.672318 -5.487055 21.804669 7.460077 -5.409002 45.069226 20.746322 18.348685 2.043690 73.595757 17.580717 15.207635 6.476473 5.272538 
-47.760418 13.905810 79.977806 -112.150595 9.753901 89.181392 -12.365124 3.048871 -24.507993 -13.099149 13.189677 49.792439 16.033137 3.610757 -27.294647 nan nan nan -10.163545 7.914331 -15.200195 2.572678 4.485002 77.140667 6.957721 1.747143 -11.680705 nan nan nan 8.630083 -3.840441 27.219199 10.183664 -1.707657 -2.510550 4.529879 1.664542 -2.548414 -4.307165 20.970961 -2.662488 -18.477624 25.425492 -19.637286 -20.912308 -2.489469 3.743346 -50.293125 13.258550 9.696071 -12.922124 -63.522932 33.948905 6.308757 -12.408145 -5.328736 22.186022 7.062735 -5.245788 44.500680 19.049878 17.688400 -3.486947 72.470977 11.714621 15.491804 6.428597 5.669386 
-48.583164 13.983541 79.965439 -110.213385 9.200853 89.323006 -13.258707 2.364470 -22.824041 -14.218064 11.791205 48.505491 16.485222 4.314666 -26.871238 nan nan nan -10.175611 8.882215 -15.974653 1.671528 4.555713 79.572306 4.855328 -1.345912 -11.644039 nan nan nan 8.644820 -4.624632 27.264879 9.798360 -1.976379 -2.439507 4.174121 1.340988 -2.578952 -5.015585 20.567146 -2.997064 -18.204340 26.075031 -20.323174 -21.621756 -3.361726 3.606781 -49.990437 11.908097 9.761208 -9.491755 -64.459716 30.851468 8.411983 -11.990942 -5.380048 22.363715 6.745325 -5.104746 43.981752 17.113074 17.071291 -7.442411 71.409282 7.666562 15.847157 6.039598 4.401458 
-49.465874 14.037916 79.938805 -108.291949 8.649600 89.530611 -14.228547 1.753528 -21.136494 -15.122756 10.267374 47.271303 17.197912 5.026136 -26.651321 nan nan nan -10.287824 9.872254 -16.854423 1.002275 4.647232 81.942224 3.004481 -4.025728 -11.862575 nan nan nan 8.694596 -5.419086 27.076609 9.476416 -2.286422 -2.309866 3.785191 1.043582 -2.638257 -5.584249 20.266456 -3.156216 -18.014268 26.598466 -20.877952 -22.233793 -4.235475 3.672181 -49.683014 10.546293 9.813522 -5.893201 -65.446180 27.729304 10.179175 -11.967155 -5.107145 22.604288 6.278473 -4.989068 43.498908 15.069575 16.435850 -11.076099 70.330991 4.368884 16.337202 5.715063 4.156254 
-50.332172 14.073527 79.918686 -106.331478 8.132569 89.653160 -15.168492 1.359508 -19.393225 -15.689592 8.651430 46.543250 17.954274 5.454010 -26.831493 nan nan nan -10.242162 10.764746 -17.716428 0.390032 4.963553 84.288307 1.575235 -6.325063 -12.331144 nan nan nan 8.835584 -6.166121 26.976703 9.131349 -2.717869 -2.264586 3.450568 0.700875 -2.655378 -6.135437 19.897731 -3.391555 -17.783480 26.941217 -21.253991 -22.776970 -4.947707 3.711432 -49.201318 9.162541 9.384252 -3.217328 -66.707964 25.224197 10.291446 -12.367205 -5.088104 22.795760 5.893772 -4.761360 43.031055 13.025062 15.620874 -14.270445 69.178020 1.686226 16.240536 5.657978 5.494049 
-51.090004 14.132454 79.849480 -104.285694 7.931676 90.143091 -15.645912 0.966128 -18.216752 -16.036404 7.267822 46.200413 18.686202 5.377445 -27.161838 nan nan nan -10.026058 11.488873 -19.322907 -0.149959 5.095899 86.778607 0.409650 -8.154186 -12.957751 nan nan nan 9.064527 -6.965901 26.679794 9.022363 -3.020931 -2.563553 3.194699 0.371259 -2.383357 -6.599183 19.680210 -3.831925 -17.586235 27.188353 -21.339015 -23.020514 -5.316929 3.614577 -48.901929 7.529241 8.639655 -0.828258 -68.141558 23.153571 9.210608 -12.943372 -5.120276 22.739261 5.262114 -4.365046 42.903492 11.339646 14.647465 -16.874270 67.905597 -0.324938 16.616609 5.600396 6.348430 
-51.836735 14.162095 79.808823 -102.306431 7.625867 90.499823 -16.216807 0.724208 -16.761714 -16.434216 5.760594 45.477553 19.202983 5.208736 -27.389097 nan nan nan -10.140558 12.076746 -21.008212 -0.494430 5.269852 89.162795 -0.288117 -9.281683 -13.967041 nan nan nan 9.222941 -7.457727 26.523676 8.956956 -3.284550 -2.679456 2.946187 -0.095921 -2.302294 -6.949947 19.617726 -4.239741 -17.480123 27.360954 -21.541948 -23.058294 -5.741113 3.360980 -48.620037 5.847918 8.127933 2.108229 -69.666234 20.857396 7.817265 -13.319389 -4.914278 22.571350 4.422596 -4.411828 43.113902 9.356804 14.003758 -19.746935 66.810560 -2.474819 18.459112 4.786427 6.667253 
-52.749687 14.353675 79.685951 -101.258487 7.562329 91.512050 -16.189767 1.349915 -16.199725 -16.335357 5.084040 44.965235 19.968385 4.377385 -28.235125 nan nan nan -10.256174 13.544060 -23.812019 -1.017779 5.412308 91.557832 -0.463612 -9.696312 -15.192740 nan nan nan 8.301385 -9.151042 24.984690 8.910342 -1.957613 -1.666540 2.957367 0.276235 -2.280033 -7.245640 19.766374 -3.623135 -17.605045 27.251307 -22.601097 -22.926406 -5.636048 3.430958 -48.382759 3.786647 8.406496 6.369946 -71.189502 16.639597 6.349401 -13.667762 -3.462694 22.520522 3.059720 -3.791991 43.011095 7.917923 13.709328 -22.731646 65.722585 -5.226069 20.777126 4.326898 7.541584 
-53.418526 14.150284 79.676537 -98.581415 6.834910 91.716713 -17.543601 0.314234 -14.447428 -16.471862 3.087372 44.026714 20.094291 4.815173 -28.044207 nan nan nan -11.390591 13.541876 -25.375963 -1.458730 5.254657 93.497810 0.076790 -9.344718 -16.511103 nan nan nan 8.999609 -8.252678 25.040322 9.308625 -3.518629 -1.974193 2.414915 -0.832295 -2.385336 -7.492610 19.877225 -4.208527 -17.812286 26.821060 -22.803214 -22.595846 -6.340430 3.164170 -48.442540 1.813456 8.906817 12.458074 -72.404313 10.458558 6.523180 -14.273828 -3.381131 22.174921 1.872398 -4.677830 43.077116 5.762738 14.210053 -25.662979 64.510920 -8.011568 21.122553 3.718074 8.664749 
-53.954330 14.339427 79.710136 -96.314622 6.733311 92.034110 -17.283978 0.239694 -13.459775 -17.152967 1.903504 44.237805 20.416030 4.686899 -28.340328 nan nan nan -11.529027 14.128142 -27.677026 -1.591264 4.835892 95.510103 0.210398 -9.794430 -17.041025 nan nan nan 8.437903 -8.512397 25.746695 9.665470 -3.829357 -2.802927 2.843436 -1.392458 -2.005643 -7.774165 19.918553 -5.257112 -17.618690 27.034512 -22.853395 -22.016016 -6.704895 2.824226 -48.191125 0.179553 7.941117 15.381739 -74.483793 8.301506 6.019147 -14.091505 -5.211415 21.851971 1.115103 -5.058320 43.292038 3.617302 13.569813 -26.554831 63.876210 -8.169118 21.371757 3.968406 6.840849 
-54.696674 14.451989 79.661865 -94.322077 6.626568 92.400266 -17.301277 0.335613 -12.172572 -17.499668 0.699600 43.953401 20.887749 4.678283 -28.652597 nan nan nan -11.816847 14.400574 -30.074998 -1.491135 4.654312 97.279156 0.140712 -9.638995 -17.811703 nan nan nan 8.399099 -9.041624 25.418086 9.810531 -4.156965 -2.489019 2.809492 -1.796977 -2.081544 -8.077085 19.988031 -5.307289 -17.637294 26.969411 -23.659659 -21.924074 -7.133616 2.758343 -47.268407 -1.361199 7.587921 21.477774 -76.310664 1.968928 5.401782 -13.820360 -6.049977 21.852195 0.373446 -4.541007 43.164117 1.970900 12.885574 -27.637992 62.815626 -9.570093 21.297318 3.956528 6.020874 
